<svg width="13" height="12" viewBox="0 0 13 12" fill="none" xmlns="http://www.w3.org/2000/svg">
<path d="M12.5161 6.44518C12.6451 6.31638 12.7176 6.14162 12.7178 5.95935V5.61102C12.7157 5.42914 12.6434 5.25509 12.5161 5.12518L7.80444 0.422684C7.71838 0.335915 7.60123 0.287109 7.47902 0.287109C7.35681 0.287109 7.23967 0.335915 7.15361 0.422684L6.50277 1.07352C6.41655 1.158 6.36796 1.27363 6.36796 1.39435C6.36796 1.51507 6.41655 1.6307 6.50277 1.71518L10.5819 5.78518L6.50277 9.85518C6.416 9.94124 6.3672 10.0584 6.3672 10.1806C6.3672 10.3028 6.416 10.42 6.50277 10.506L7.15361 11.1477C7.23967 11.2345 7.35681 11.2833 7.47902 11.2833C7.60123 11.2833 7.71838 11.2345 7.80444 11.1477L12.5161 6.44518Z" fill="white"/>
<path d="M6.46484 6.44518C6.59381 6.31638 6.66634 6.14162 6.6665 5.95935V5.61102C6.66439 5.42914 6.59215 5.25509 6.46484 5.12518L1.75317 0.422684C1.66711 0.335915 1.54996 0.287109 1.42775 0.287109C1.30554 0.287109 1.1884 0.335915 1.10234 0.422684L0.451504 1.07352C0.365278 1.158 0.316688 1.27363 0.316688 1.39435C0.316688 1.51507 0.365278 1.6307 0.451504 1.71518L4.53067 5.78518L0.451504 9.85518C0.364735 9.94124 0.315929 10.0584 0.315929 10.1806C0.315929 10.3028 0.364735 10.42 0.451504 10.506L1.10234 11.1477C1.1884 11.2345 1.30554 11.2833 1.42775 11.2833C1.54996 11.2833 1.66711 11.2345 1.75317 11.1477L6.46484 6.44518Z" fill="white"/>
</svg>
