<svg width="7" height="12" viewBox="0 0 7 12" fill="none" xmlns="http://www.w3.org/2000/svg">
<path d="M0.654792 6.94421C0.525824 6.8154 0.453285 6.64065 0.453125 6.45837V6.11004C0.455237 5.92816 0.527481 5.75412 0.654792 5.62421L5.36646 0.921707C5.45252 0.834939 5.56967 0.786133 5.69188 0.786133C5.81408 0.786133 5.93123 0.834939 6.01729 0.921707L6.66813 1.57254C6.75435 1.65702 6.80294 1.77266 6.80294 1.89337C6.80294 2.01409 6.75435 2.12972 6.66813 2.21421L2.58896 6.28421L6.66813 10.3542C6.75489 10.4403 6.8037 10.5574 6.8037 10.6796C6.8037 10.8018 6.75489 10.919 6.66813 11.005L6.01729 11.6467C5.93123 11.7335 5.81408 11.7823 5.69188 11.7823C5.56967 11.7823 5.45252 11.7335 5.36646 11.6467L0.654792 6.94421Z" fill="#BCBCBC"/>
</svg>
