<svg width="7" height="12" viewBox="0 0 7 12" fill="none" xmlns="http://www.w3.org/2000/svg">
<path d="M6.46484 6.65905C6.59381 6.53024 6.66634 6.35549 6.6665 6.17322V5.82488C6.66439 5.643 6.59215 5.46896 6.46484 5.33905L1.75317 0.636551C1.66711 0.549782 1.54996 0.500977 1.42775 0.500977C1.30554 0.500977 1.1884 0.549782 1.10234 0.636551L0.451504 1.28738C0.365278 1.37187 0.316688 1.4875 0.316688 1.60822C0.316688 1.72893 0.365278 1.84457 0.451504 1.92905L4.53067 5.99905L0.451504 10.0691C0.364735 10.1551 0.315929 10.2723 0.315929 10.3945C0.315929 10.5167 0.364735 10.6338 0.451504 10.7199L1.10234 11.3616C1.1884 11.4483 1.30554 11.4971 1.42775 11.4971C1.54996 11.4971 1.66711 11.4483 1.75317 11.3616L6.46484 6.65905Z" fill="white"/>
</svg>
